Coordinates
version=1
nRows=10
nColumns=46
inDegrees=yes

Units are S.I. units (second, meters, Newtons, ...)
Angles are in degrees.

endheader
time	pelvis_tilt	pelvis_list	pelvis_rotation	pelvis_tx	pelvis_ty	pelvis_tz	bb_angle	bb_tx	bb_ty	bb_tz	hip_flexion_r	hip_adduction_r	hip_rotation_r	knee_angle_r	knee_angle_r_beta	ankle_angle_r	subtalar_angle_r	mtp_angle_r	crank_angle_r	hip_flexion_l	hip_adduction_l	hip_rotation_l	knee_angle_l	knee_angle_l_beta	ankle_angle_l	subtalar_angle_l	mtp_angle_l	crank_angle_l	lumbar_extension	lumbar_bending	lumbar_rotation	arm_flex_r	arm_add_r	arm_rot_r	elbow_flex_r	pro_sup_r	wrist_flex_r	wrist_dev_r	arm_flex_l	arm_add_l	arm_rot_l	elbow_flex_l	pro_sup_l	wrist_flex_l	wrist_dev_l
      5.00500000	    -23.10858802	     -8.91171705	     -9.92068117	      0.39999915	      1.21875169	     -0.25481863	      0.00000000	      0.50000000	      0.00000000	      0.25000000	     64.03027726	      7.61966601	      1.85088629	     87.73966084	      1.53134597	     15.33325679	      2.33315159	      0.00000000	      0.00000000	     21.22321227	    -13.64887672	     -4.50042545	     35.69408004	      0.62297922	    -17.40850753	    -10.43383909	      0.00000000	      0.00000000	    -62.80203968	      8.31588401	      4.39260374	     49.64656456	    -10.19998861	     28.75358504	     81.12224414	     51.71647178	      0.00000000	      0.00000000	     26.85445357	    -21.18534456	      3.46783877	     89.25128889	     54.85403232	      0.00000000	      0.00000000
      5.01000000	    -23.03540367	     -8.20017029	    -10.34234883	      0.39988115	      1.22004443	     -0.25474140	      0.00000000	      0.50000000	      0.00000000	      0.25000000	     62.69381980	      7.52986720	      2.52920816	     85.26678520	      1.48818614	     17.10474791	      1.86313623	      0.00000000	      0.00000000	     22.26789358	    -12.95568367	     -4.16456795	     38.40868321	      0.67035798	    -17.85952343	    -11.17952967	      0.00000000	      0.00000000	    -63.13786713	      7.54190101	      4.25347113	     49.77908714	    -10.29468129	     28.55836772	     81.55432501	     51.76462872	      0.00000000	      0.00000000	     27.31181275	    -21.10327216	      3.55448982	     89.31703927	     54.87569163	      0.00000000	      0.00000000
      5.01500000	    -22.96878420	     -7.56791668	    -10.50767789	      0.40002578	      1.22107656	     -0.25521192	      0.00000000	      0.50000000	      0.00000000	      0.25000000	     61.27269362	      7.21270628	      2.95051259	     82.61061988	      1.44182731	     18.43697642	      1.20574362	      0.00000000	      0.00000000	     23.40654357	    -12.15501705	     -3.43043231	     41.06033127	      0.71663797	    -18.70318916	    -12.36582814	      0.00000000	      0.00000000	    -63.48385460	      6.84128714	      5.93647471	     48.27191271	    -12.41931201	     26.41909960	     84.90768704	     52.08670310	      0.00000000	      0.00000000	     29.52007665	    -19.82016827	      6.09689290	     87.86199969	     55.01055077	      0.00000000	      0.00000000
      5.02000000	    -22.73602991	     -6.70215748	    -10.77817952	      0.40038368	      1.22185159	     -0.25529958	      0.00000000	      0.50000000	      0.00000000	      0.25000000	     59.68949639	      6.83717185	      3.58465511	     79.93810328	      1.39518310	     19.65375096	      0.36574795	      0.00000000	      0.00000000	     24.32262601	    -11.23532103	     -3.21164876	     43.63267510	      0.76153384	    -19.34426059	    -12.86546959	      0.00000000	      0.00000000	    -63.80887461	      6.11345486	      5.52804231	     48.32946147	    -12.48110004	     26.30305099	     85.12106160	     52.10689139	      0.00000000	      0.00000000	     29.79672355	    -19.72802770	      6.16514193	     87.86432958	     55.02044320	      0.00000000	      0.00000000
      5.02500000	    -22.67109010	     -6.05755280	    -10.95848869	      0.40054749	      1.22230438	     -0.25578530	      0.00000000	      0.50000000	      0.00000000	      0.25000000	     58.20668141	      6.43243449	      3.88366865	     77.02682631	      1.34437173	     20.29146988	     -0.43354441	      0.00000000	      0.00000000	     25.46294506	    -10.42129196	     -2.69080361	     46.18336209	      0.80605173	    -20.31206408	    -14.05323544	      0.00000000	      0.00000000	    -64.03699862	      5.56823189	      5.73997514	     47.94296852	    -13.19869614	     25.70354339	     86.40099842	     52.24609897	      0.00000000	      0.00000000	     30.35586993	    -19.30670540	      6.71152482	     87.83947358	     55.10530247	      0.00000000	      0.00000000
      5.03000000	    -22.43886038	     -5.27939163	    -11.29517717	      0.40077507	      1.22245284	     -0.25594374	      0.00000000	      0.50000000	      0.00000000	      0.25000000	     56.62825536	      6.10749599	      4.53923181	     74.22020066	      1.29538687	     20.95039489	     -0.68993988	      0.00000000	      0.00000000	     26.36244465	     -9.63424071	     -2.71936699	     48.72704761	      0.85044742	    -20.67241947	    -14.48539584	      0.00000000	      0.00000000	    -64.22461903	      4.79860670	      5.42636742	     47.88714148	    -13.40656092	     25.49022936	     86.71529348	     52.27247409	      0.00000000	      0.00000000	     30.67033844	    -19.15877647	      6.79893176	     87.75004713	     55.10350198	      0.00000000	      0.00000000
      5.03500000	    -22.34119088	     -4.50387857	    -11.48804020	      0.40103843	      1.22206762	     -0.25597186	      0.00000000	      0.50000000	      0.00000000	      0.25000000	     55.29040475	      5.69320430	      5.16385801	     71.48705076	      1.24768441	     20.91002529	     -1.34582888	      0.00000000	      0.00000000	     27.41589314	     -8.85118341	     -2.71340558	     51.26118211	      0.89467641	    -20.84662622	    -14.94618740	      0.00000000	      0.00000000	    -64.23374131	      3.99742501	      6.71592724	     46.25808209	    -15.22634880	     23.53013658	     89.34706228	     52.45716799	      0.00000000	      0.00000000	     32.40440430	    -17.86961089	      8.86221118	     86.15456342	     55.16577205	      0.00000000	      0.00000000
      5.04000000	    -22.07661738	     -3.55538179	    -11.62065000	      0.40138582	      1.22149602	     -0.25627551	      0.00000000	      0.50000000	      0.00000000	      0.25000000	     53.87835799	      4.99212106	      5.85619349	     68.87992471	      1.20218147	     20.77216344	     -1.29877255	      0.00000000	      0.00000000	     28.23652170	     -7.87179635	     -2.93557239	     53.65603421	      0.93647446	    -20.82828609	    -15.16120699	      0.00000000	      0.00000000	    -64.27397516	      3.37247165	      6.07916721	     46.11633920	    -15.37758634	     23.46111686	     89.39293223	     52.45809014	      0.00000000	      0.00000000	     32.40096508	    -17.70386985	      8.98257235	     86.09224296	     55.17261099	      0.00000000	      0.00000000
      5.04500000	    -21.86235887	     -2.71786559	    -11.72823025	      0.40127266	      1.22043602	     -0.25652406	      0.00000000	      0.50000000	      0.00000000	      0.25000000	     52.64457455	      4.36780386	      6.54595960	     66.43423080	      1.15949606	     20.38116552	     -1.17542995	      0.00000000	      0.00000000	     29.14923075	     -6.99312281	     -3.08426144	     56.18504193	      0.98061397	    -20.40667876	    -15.57015466	      0.00000000	      0.00000000	    -64.23044776	      2.77446168	      5.55447939	     45.97500150	    -15.53868787	     23.35856751	     89.56991812	     52.47599818	      0.00000000	      0.00000000	     32.58826703	    -17.61393899	      9.05475620	     86.05250003	     55.17564269	      0.00000000	      0.00000000
      5.05000000	    -22.01025704	     -2.13145647	    -11.70199647	      0.40091919	      1.21835703	     -0.25672831	      0.00000000	      0.50000000	      0.00000000	      0.25000000	     51.80732927	      3.92237665	      7.05131900	     64.05824721	      1.11802733	     19.56064465	     -1.31630240	      0.00000000	      0.00000000	     30.56193337	     -6.54556569	     -3.22126006	     59.03057636	      1.03027792	    -19.14825067	    -15.62947364	      0.00000000	      0.00000000	    -63.83134818	      2.28358905	      7.12960475	     43.90527559	    -17.48631185	     21.13598021	     92.48431548	     52.66071169	      0.00000000	      0.00000000	     34.35197190	    -16.16642007	     11.24980758	     84.20943439	     55.22298485	      0.00000000	      0.00000000
